<?xml version="1.0" encoding="UTF-8"?>
<svg id="Layer_2" data-name="Layer 2" xmlns="http://www.w3.org/2000/svg" viewBox="0 0 163.62 171.41">
  <defs>
    <style>
      .cls-1 {
        stroke-width: 4px;
      }

      .cls-1, .cls-2 {
        stroke: #0a1128;
        stroke-miterlimit: 10;
      }

      .cls-1, .cls-3 {
        fill: none;
      }

      .cls-2 {
        fill: #efe745;
        stroke-width: .5px;
      }

      .cls-3 {
        stroke: #775ed3;
        stroke-linecap: round;
        stroke-linejoin: round;
        stroke-width: 6px;
      }
    </style>
  </defs>
  <g id="Layer_1-2" data-name="Layer 1">
    <g>
      <g>
        <path class="cls-1" d="M48.61,121.36c.2-5.17.89-10.17,2.47-14.8,3.24-9.48,9.44-14.98,15.85-17.88h0c2.04,5.5,5.28,8.92,8.8,10.23"/>
        <path class="cls-1" d="M87.9,98.44c3.53-1.41,6.76-5.09,8.8-11h0c6.41,3.11,12.62,9.03,15.85,19.24,1.57,4.98,2.26,10.37,2.47,15.93"/>
        <path class="cls-1" d="M82.33,88.22c8.66,0,15.69-6.98,17.33-17.33.32-2.03.66-4.27.78-6.32.77-12.69-6.87-23.55-18.12-23.55s-18.89,10.86-18.12,23.55c.12,2.05.46,4.29.78,6.32,1.64,10.35,8.68,17.33,17.33,17.33Z"/>
        <path class="cls-1" d="M64.19,61.61c7.61,7.63,14.57-3.64,14.57-3.64,0,0,7.01,13.09,21.73,4.97"/>
      </g>
      <g>
        <path class="cls-3" d="M64.36,147.42c-.4-2.87-2.29-5.31-4.97-6.41l-5.96-2.46c-1.17-.48-2.51-.32-3.52.44l-10.32,7.71c-1.43,1.07-3.43.92-4.69-.34l-17.64-17.64c-1.27-1.27-1.41-3.27-.33-4.7l7.73-10.25c.77-1.02.94-2.36.45-3.54l-3.46-8.36c-.48-1.17-1.55-2-2.8-2.18l-12.77-1.85c-1.77-.26-3.08-1.77-3.08-3.55v-24.95c0-1.79,1.32-3.31,3.09-3.56l12.71-1.78c1.26-.18,2.34-1.01,2.82-2.19l3.46-8.38c.48-1.17.31-2.51-.44-3.52l-7.72-10.33c-1.07-1.43-.92-3.43.34-4.69l17.64-17.64c1.27-1.27,3.27-1.41,4.7-.33l10.25,7.73c1.02.77,2.36.94,3.53.45l8.36-3.46c1.17-.48,2-1.55,2.18-2.8l1.85-12.77c.26-1.77,1.77-3.08,3.55-3.08h24.95c1.79,0,3.31,1.32,3.56,3.1l1.78,12.71c.18,1.26,1.01,2.33,2.19,2.82l8.37,3.46c1.17.48,2.5.31,3.52-.44l10.33-7.71c1.43-1.07,3.43-.92,4.69.34l17.64,17.64c1.27,1.27,1.41,3.27.33,4.7l-7.72,10.23c-.77,1.02-.94,2.36-.45,3.54l3.47,8.38c.48,1.17,1.55,2,2.8,2.18l12.75,1.85c1.77.26,3.08,1.77,3.08,3.55v24.95c0,1.79-1.32,3.31-3.09,3.56l-12.71,1.78c-1.26.18-2.34,1.01-2.82,2.19l-3.46,8.38c-.48,1.17-.31,2.51.44,3.52l7.71,10.32c1.07,1.43.92,3.43-.34,4.69l-17.64,17.64c-1.27,1.27-3.27,1.41-4.7.33l-10.25-7.73c-1.01-.76-2.36-.94-3.53-.45l-5.96,2.46c-2.66,1.1-4.55,3.52-4.96,6.37"/>
        <g>
          <path class="cls-3" d="M32.15,67.68c2.39-8.08,6.77-15.69,13.15-22.06,20.4-20.4,53.47-20.4,73.87,0,6.03,6.03,10.27,13.16,12.74,20.75"/>
          <path class="cls-3" d="M133.09,94.45c-2.14,9.17-6.78,17.88-13.93,25.03-20.4,20.4-53.47,20.4-73.87,0-10.52-10.52-15.61-24.4-15.28-38.19"/>
        </g>
      </g>
      <g>
        <polygon class="cls-2" points="122.03 131.81 115.73 144.77 101.46 146.76 111.83 156.76 109.32 170.95 122.03 164.17 134.75 170.95 132.23 156.76 142.61 146.76 128.34 144.77 122.03 131.81"/>
        <polygon class="cls-2" points="43 133.15 48.87 145.22 62.17 147.08 52.5 156.39 54.85 169.61 43 163.29 31.16 169.61 33.5 156.39 23.84 147.08 37.13 145.22 43 133.15"/>
        <polygon class="cls-2" points="82.07 108.8 92.08 129.37 114.75 132.54 98.27 148.42 102.27 170.95 82.07 160.19 61.88 170.95 65.87 148.42 49.4 132.54 72.06 129.37 82.07 108.8"/>
      </g>
    </g>
  </g>
</svg>