<?xml version="1.0" encoding="UTF-8"?>
<svg id="Layer_2" data-name="Layer 2" xmlns="http://www.w3.org/2000/svg" viewBox="0 0 165.91 133.81">
  <defs>
    <style>
      .cls-1 {
        fill: #fff;
      }

      .cls-1, .cls-2 {
        stroke: #fff;
      }

      .cls-1, .cls-2, .cls-3 {
        stroke-linecap: round;
        stroke-linejoin: round;
        stroke-width: 4px;
      }

      .cls-2, .cls-3 {
        fill: none;
      }

      .cls-3 {
        stroke: #0a1128;
      }

      .cls-4 {
        fill: #775ed3;
      }
    </style>
  </defs>
  <g id="Layer_1-2" data-name="Layer 1">
    <g>
      <path class="cls-4" d="M82.95,91.54c36.53-19.29,38.27-21.92,38.27-66.56,0-4.23-.2-8.38-.59-12.41C96.66,18.17,82.95,0,82.95,0c0,0-13.7,18.17-37.68,12.57-.39,4.03-.59,8.18-.59,12.41,0,44.64,1.73,47.27,38.27,66.56Z"/>
      <path class="cls-2" d="M55.65,23.75c-.08,0-.16,0-.24,0"/>
      <path class="cls-2" d="M79,16c-3.15,2.43-8.16,5.5-14.67,6.95"/>
      <path class="cls-1" d="M103.96,38.25l-22.49,22.49c-1.67,1.67-4.38,1.67-6.05,0l-11.17-11.17,6.12-6.12,8.07,8.08h0l19.39-19.4,6.12,6.12Z"/>
      <g>
        <g>
          <path class="cls-3" d="M24.33,54.88s.87-18.42,1.97-26.25c1.9-13.6-7.7-14.86-9.06-9.6-3.9,15.06-10.64,37.22-14.5,51.83-2.72,10.28,2.84,20.22,5.7,27.2,4.21,10.31,6.76,15.97,2.63,27.36"/>
          <path class="cls-3" d="M38.12,131.81c2.68-8.56,6.81-13.38,8.1-16.06,10.62-22.12-6.9-34.82-6.9-34.82l-6.99-20.98c-1.26-3.78-5.54-5.89-9.72-4.8-1.85.49-3.03,1.74-2.72,3.87.67,4.62,5.25,27.39,5.25,27.39"/>
        </g>
        <g>
          <path class="cls-3" d="M141.58,54.88s-.87-18.42-1.97-26.25c-1.9-13.6,7.7-14.86,9.06-9.6,3.9,15.06,10.64,37.22,14.5,51.83,2.72,10.28-2.84,20.22-5.7,27.2-4.21,10.31-6.76,15.97-2.63,27.36"/>
          <path class="cls-3" d="M127.79,131.81c-2.68-8.56-6.81-13.38-8.1-16.06-10.62-22.12,6.9-34.82,6.9-34.82l6.99-20.98c1.26-3.78,5.54-5.89,9.72-4.8,1.85.49,3.03,1.74,2.72,3.87-.67,4.62-5.25,27.39-5.25,27.39"/>
        </g>
      </g>
    </g>
  </g>
</svg>