<?xml version="1.0" encoding="UTF-8"?>
<svg id="Layer_2" data-name="Layer 2" xmlns="http://www.w3.org/2000/svg" viewBox="0 0 132.77 153.32">
  <defs>
    <style>
      .cls-1 {
        stroke: #775ed3;
        stroke-linecap: round;
        stroke-linejoin: round;
      }

      .cls-1, .cls-2 {
        fill: none;
        stroke-width: 4px;
      }

      .cls-2 {
        stroke: #0a1128;
        stroke-miterlimit: 10;
      }
    </style>
  </defs>
  <g id="Layer_1-2" data-name="Layer 1">
    <g>
      <g>
        <path class="cls-2" d="M41.08,150.99c-23.68-1.03-24.17-5.14-23.21-21.26.32-5.39,1.42-10.62,3.92-15.44,5.94-11.44,18.2-17.33,29.97-19.88l1.53-.31"/>
        <path class="cls-2" d="M94.08,98.79c6.99,3.35,13.17,8.34,16.88,15.49,2.51,4.82,3.62,10.05,3.93,15.44,1.23,20.56.09,21.59-48.52,21.59-4.46,0-8.51,0-12.21-.04"/>
        <path class="cls-2" d="M66.38,102.22c7.81,0,14.16-6.3,15.64-15.64.29-1.83.6-3.85.71-5.7.69-11.45-6.2-21.25-16.35-21.25s-17.04,9.8-16.35,21.25c.11,1.85.42,3.87.71,5.7,1.48,9.34,7.83,15.64,15.64,15.64Z"/>
        <line class="cls-2" x1="41.08" y1="150.99" x2="41.08" y2="131.87"/>
        <line class="cls-2" x1="91.69" y1="150.99" x2="91.69" y2="131.87"/>
      </g>
      <g>
        <polyline class="cls-1" points="10.22 73.32 10.22 50.85 2 49.17 20.21 30.98 38.41 49.17 30.19 50.85 30.19 93.12"/>
        <polyline class="cls-1" points="122.56 116.04 122.56 50.85 130.77 49.18 112.57 30.97 94.37 49.18 102.59 50.85 102.59 80.37"/>
        <polyline class="cls-1" points="53.53 51.56 53.53 27.59 42.94 25.44 66.39 2 89.82 25.44 79.24 27.59 79.24 55.83"/>
        <line class="cls-1" x1="10.22" y1="84.11" x2="10.22" y2="89.79"/>
        <line class="cls-1" x1="10.22" y1="98.28" x2="10.22" y2="98.28"/>
      </g>
    </g>
  </g>
</svg>