<?xml version="1.0" encoding="UTF-8"?>
<svg id="Layer_2" xmlns="http://www.w3.org/2000/svg" version="1.1" viewBox="0 0 434.6 294">
  <!-- Generator: Adobe Illustrator 29.6.1, SVG Export Plug-In . SVG Version: 2.1.1 Build 9)  -->
  <defs>
    <style>
      .st0 {
        fill: #dacdf2;
      }

      .st1 {
        fill: #f7f2f9;
      }
    </style>
  </defs>
  <path class="st0" d="M.3,286.5c0-11.4,16.9-15.5,28.8-15.5,28.7,0,18.8-2.3,14.4-7.9-2-2.5-1.4-7.5-.4-9.7,5.6-11.9,31.2-15.3,36.1-18.2.8-.5,1.6-1.2,2.3-1.9,1.9-2,3.1-4.5,3.7-7.2,1.9-8.3,8.1-34.9,11.1-44.8,3.8-12.6,9.6-.6,9.6-.6l9.6,19.5h31.5s1.8-3.6,9.5-18.9c7.4-14.7,10.8,0,10.8,0,0,0,3.8,55.3,21.8,48.9,28.1-27.8,99.7-131.4,103.2-131.8,25.5-25.5,75.3-19.1,87.6-14.7,5,1.8,9.7,4,14.2,6.7,11.9-25.1,7.3-58.3-16.6-74.8-10.6-7.4-1.8-20.5,8.8-13.2,33.4,23.1,55.7,82.1,36.3,116.6,1.5,2.5,2.9,5,4.1,7.6,6.2,13,9,27.7,7.4,42.3-.2,1.6-21,70.3-25.6,78.3l-20.4,46.5h-47.8s-1.1,0,0-6.8c3.4-21.3,24.2-6,28.4-22l1.8-4.2c-14.6-8.5-22.3-41.3-22.4-42.7-1.8-1.6-3.5-3.2-5.1-4.9-2.7,5.4-33.5,80.6-126,80.6-28.7,0-216.5-.4-216.5-.4,0,0,0,0,0-6.8h0ZM62.1,261.9c6.5,0,11.7-3.3,11.7-7.5s-5.2-7.5-11.7-7.5c-6.4,0-11.7,3.4-11.7,7.5s5.2,7.5,11.7,7.5ZM91,232.6c1.3-1.9,3.3-3.1,5.5-3.1,4,0,7.3,4.1,7.3,9.1s-1,5.3-2.6,7c.7.1,1.4.2,2.1.2,6.8,0,12.2-6.2,12.2-13.9s-1.4-7.4-3.7-9.9c-.7-1-1.6-1.8-2.6-2.4-1.9-1.2-3.8-1.6-5.6-1.5-.1,0-.2,0-.3,0-6.8,0-12.3,6.2-12.3,13.9,0,.2,0,.5,0,.7h0ZM134.5,229.4c4,0,7.3,4.1,7.3,9.1s-1.1,5.3-2.7,7c.7.1,1.4.2,2.1.2,6.8,0,12.2-6.4,12.2-13.9,0-7.6-5.3-13.7-11.9-13.9h0c0,0-.2,0-.3,0s-.2,0-.3,0c-.3,0-.6,0-.9,0,0,0-.1,0-.2,0-.3,0-.5,0-.8.1-5.7,1.2-10.1,6.8-10.1,13.7s0,.6,0,.8c1.3-2,3.3-3.2,5.5-3.2Z"/>
  <path class="st1" d="M73.8,254.4c0,4.1-5.2,7.5-11.7,7.5-6.4,0-11.7-3.3-11.7-7.5s5.2-7.5,11.7-7.5c6.5,0,11.7,3.4,11.7,7.5Z"/>
  <path class="st1" d="M103.2,217.9c.1,0,.2,0,.3,0,1.8-.1,3.7.3,5.6,1.5,1,.6,1.9,1.5,2.6,2.4,2.3,2.5,3.7,6,3.7,9.9,0,7.7-5.5,13.9-12.2,13.9s-1.4,0-2.1-.2c1.6-1.7,2.6-4.2,2.6-7,0-5-3.3-9.1-7.3-9.1s-4.1,1.2-5.5,3.1c0-.2,0-.5,0-.7,0-7.7,5.5-13.9,12.3-13.9Z"/>
  <path class="st1" d="M128.9,231.8c0-6.8,4.4-12.5,10.1-13.7.3,0,.5-.1.8-.1,0,0,.1,0,.2,0,.3,0,.6,0,.9,0,.1,0,.2,0,.3,0s.2,0,.3,0h0c6.6.2,11.9,6.2,11.9,13.9,0,7.7-5.5,13.9-12.2,13.9s-1.4,0-2.1-.2c1.6-1.7,2.7-4.2,2.7-7,0-5-3.3-9.1-7.3-9.1-2.2,0-4.2,1.3-5.5,3.2,0-.3,0-.5,0-.8h0Z"/>
</svg>