<?xml version="1.0" encoding="UTF-8"?>
<svg id="Layer_2" data-name="Layer 2" xmlns="http://www.w3.org/2000/svg" viewBox="0 0 148.17 155.02">
  <defs>
    <style>
      .cls-1 {
        fill: none;
        stroke: #775ed3;
        stroke-miterlimit: 10;
        stroke-width: 4px;
      }

      .cls-2 {
        fill: #efe745;
      }
    </style>
  </defs>
  <g id="Layer_1-2" data-name="Layer 1">
    <g>
      <polygon class="cls-2" points="74.08 48.35 81.9 64.42 99.6 66.89 86.73 79.29 89.85 96.88 74.08 88.48 58.32 96.88 61.43 79.29 48.57 66.89 66.27 64.42 74.08 48.35"/>
      <g>
        <path class="cls-1" d="M74.08,127.59c-5.09,0-9.66-2.83-11.94-7.38-1.72-3.44-5.18-5.58-9.03-5.58-1.08,0-2.16.17-3.19.52-1.42.47-2.86.71-4.3.71h0c-4.23,0-8.27-2.09-10.8-5.6-2.52-3.5-3.18-7.87-1.81-11.99,1.58-4.76-.59-10.01-5.06-12.24-4.55-2.28-7.38-6.85-7.38-11.94s2.83-9.66,7.38-11.94c4.47-2.23,6.64-7.49,5.07-12.22-1.38-4.14-.72-8.51,1.8-12.01,2.53-3.5,6.56-5.6,10.8-5.6,1.44,0,2.87.24,4.28.7,1.06.35,2.13.53,3.21.53,3.85,0,7.31-2.14,9.03-5.58,2.28-4.55,6.85-7.38,11.94-7.38s9.66,2.83,11.94,7.38c1.72,3.44,5.18,5.58,9.03,5.58,1.08,0,2.16-.17,3.19-.52,1.42-.47,2.86-.71,4.3-.71,4.24,0,8.27,2.09,10.8,5.6,2.52,3.5,3.18,7.87,1.81,11.99-1.58,4.76.59,10.01,5.06,12.24,4.55,2.28,7.38,6.85,7.38,11.94s-2.83,9.66-7.38,11.94c-4.47,2.23-6.64,7.49-5.06,12.22v.03c1.38,4.11.72,8.48-1.8,11.98-2.53,3.5-6.56,5.6-10.8,5.6-1.44,0-2.87-.24-4.28-.7-1.06-.35-2.13-.53-3.21-.53-3.85,0-7.31,2.14-9.03,5.58-2.28,4.55-6.85,7.38-11.94,7.38Z"/>
        <path class="cls-1" d="M43.06,115.59l-11.75,23.11,14.07,1.02c.75-.14,1.51.24,1.85.94l9.11,10.77,8.86-17.43"/>
        <path class="cls-1" d="M108.93,123.11l7.92,15.59-14.06,1.02c-.76-.14-1.52.24-1.86.94l-9.11,10.77-12.63-24.85"/>
        <g>
          <line class="cls-1" x1="74.08" y1="6.09" x2="74.08"/>
          <line class="cls-1" x1="97.46" y1="17.65" x2="99.55" y2="12.6"/>
          <line class="cls-1" x1="122.16" y1="26" x2="126.47" y2="21.7"/>
          <line class="cls-1" x1="130.51" y1="50.71" x2="135.57" y2="48.62"/>
          <line class="cls-1" x1="142.08" y1="74.08" x2="148.17" y2="74.08"/>
          <line class="cls-1" x1="130.51" y1="97.46" x2="135.57" y2="99.55"/>
          <line class="cls-1" x1="122.16" y1="122.16" x2="126.47" y2="126.47"/>
          <line class="cls-1" x1="26" y1="122.16" x2="21.7" y2="126.47"/>
          <line class="cls-1" x1="17.65" y1="97.46" x2="12.6" y2="99.55"/>
          <line class="cls-1" x1="6.09" y1="74.08" y2="74.08"/>
          <line class="cls-1" x1="17.65" y1="50.71" x2="12.6" y2="48.62"/>
          <line class="cls-1" x1="26" y1="26" x2="21.7" y2="21.7"/>
          <line class="cls-1" x1="50.71" y1="17.65" x2="48.62" y2="12.6"/>
        </g>
      </g>
    </g>
  </g>
</svg>