<?xml version="1.0" encoding="UTF-8"?>
<svg id="Layer_2" data-name="Layer 2" xmlns="http://www.w3.org/2000/svg" viewBox="0 0 159.26 156.1">
  <defs>
    <style>
      .cls-1 {
        stroke: #dacdf2;
      }

      .cls-1, .cls-2, .cls-3 {
        fill: none;
        stroke-miterlimit: 10;
        stroke-width: 4px;
      }

      .cls-2 {
        stroke: #775ed3;
      }

      .cls-3 {
        stroke: #0a1128;
      }
    </style>
  </defs>
  <g id="Layer_1-2" data-name="Layer 1">
    <g>
      <path class="cls-1" d="M111.34,72.33l-30.14,30.14c-2.24,2.24-5.87,2.24-8.11,0l-14.96-14.96,8.2-8.2,10.81,10.82h0l25.98-25.99,8.2,8.2Z"/>
      <path class="cls-1" d="M108.17,86.06c.12,1.08.18,2.18.18,3.29,0,16.86-13.67,30.53-30.53,30.53s-30.53-13.67-30.53-30.53,13.67-30.53,30.53-30.53c5.88,0,11.37,1.66,16.03,4.54"/>
    </g>
    <g>
      <g>
        <path class="cls-3" d="M86.48,20.68c5.13,1.11,10.24,3.68,12.83,8.67,1.1,2.1,1.58,4.38,1.71,6.73.53,8.96-4.54,8.97-21.15,8.97s-21.68,0-21.15-8.97c.14-2.35.62-4.63,1.71-6.73,2.59-4.99,7.7-7.56,12.83-8.67"/>
        <path class="cls-3" d="M79.87,24.48c4.12,0,7.48-3.33,8.26-8.26.15-.97.31-2.03.37-3.01.37-6.04-3.27-11.22-8.63-11.22s-9,5.17-8.63,11.22c.06.98.22,2.04.37,3.01.78,4.93,4.13,8.26,8.26,8.26Z"/>
      </g>
      <g>
        <path class="cls-3" d="M29.79,113.93c5.13,1.11,10.24,3.68,12.83,8.67,1.1,2.1,1.58,4.38,1.71,6.73.53,8.96-4.54,8.97-21.15,8.97s-21.68,0-21.15-8.97c.14-2.35.62-4.63,1.71-6.73,2.59-4.99,7.7-7.56,12.83-8.67"/>
        <path class="cls-3" d="M23.19,117.74c4.12,0,7.47-3.33,8.26-8.26.15-.97.31-2.03.37-3.01.37-6.04-3.27-11.22-8.63-11.22s-9,5.17-8.63,11.22c.06.98.22,2.04.37,3.01.78,4.93,4.13,8.26,8.26,8.26Z"/>
      </g>
      <g>
        <path class="cls-3" d="M142.68,113.93c5.13,1.11,10.24,3.68,12.83,8.67,1.1,2.1,1.58,4.38,1.71,6.73.53,8.96-4.54,8.97-21.15,8.97s-21.68,0-21.15-8.97c.14-2.35.62-4.63,1.71-6.73,2.59-4.99,7.7-7.56,12.83-8.67"/>
        <path class="cls-3" d="M136.07,117.74c4.12,0,7.48-3.33,8.26-8.26.15-.97.31-2.03.37-3.01.37-6.04-3.27-11.22-8.63-11.22s-9,5.17-8.63,11.22c.06.98.22,2.04.37,3.01.78,4.93,4.13,8.26,8.26,8.26Z"/>
      </g>
    </g>
    <g>
      <g>
        <polyline class="cls-2" points="22.45 71.51 13.92 78.2 8.47 68.84"/>
        <path class="cls-2" d="M13.92,78.2c2.33-18.85,12.54-34.8,26.92-44.96"/>
      </g>
      <g>
        <polyline class="cls-2" points="93.33 141.66 103.39 145.7 98.01 155.1"/>
        <path class="cls-2" d="M103.39,145.7c-15.97,6.77-33.14,6.63-48.17.94"/>
      </g>
      <g>
        <polyline class="cls-2" points="118.65 45.19 117.11 34.47 127.95 34.43"/>
        <path class="cls-2" d="M117.11,34.47c15.8,11.92,24.59,29.68,25.64,48.01"/>
      </g>
    </g>
  </g>
</svg>